<?xml version="1.0" encoding="UTF-8" standalone="no" ?>
<!DOCTYPE svg PUBLIC "-//W3C//DTD SVG 1.1//EN" "http://www.w3.org/Graphics/SVG/1.1/DTD/svg11.dtd">
<svg xmlns="http://www.w3.org/2000/svg" xmlns:xlink="http://www.w3.org/1999/xlink" version="1.1" width="18" height="18" viewBox="0 0 18 18" xml:space="preserve">
<desc>Created with Fabric.js 4.6.0</desc>
<defs>
</defs>
<g transform="matrix(-1 0 0 -1 9 9)" id="BlyNmcYxoxbYua2jTIIq7"  >
<path style="stroke: none; stroke-width: 1; stroke-dasharray: none; stroke-linecap: butt; stroke-dashoffset: 0; stroke-linejoin: miter; stroke-miterlimit: 4; fill: rgb(255,0,0); fill-rule: nonzero; opacity: 1;" vector-effect="non-scaling-stroke"  transform=" translate(-12, -12)" d="M 13.4099 12.0002 L 19.7099 5.71019 C 19.8982 5.52188 20.004 5.26649 20.004 5.00019 C 20.004 4.73388 19.8982 4.47849 19.7099 4.29019 C 19.5216 4.10188 19.2662 3.99609 18.9999 3.99609 C 18.7336 3.99609 18.4782 4.10188 18.2899 4.29019 L 11.9999 10.5902 L 5.70994 4.29019 C 5.52164 4.10188 5.26624 3.99609 4.99994 3.99609 C 4.73364 3.99609 4.47824 4.10188 4.28994 4.29019 C 4.10164 4.47849 3.99585 4.73388 3.99585 5.00019 C 3.99585 5.26649 4.10164 5.52188 4.28994 5.71019 L 10.5899 12.0002 L 4.28994 18.2902 C 4.19621 18.3831 4.12182 18.4937 4.07105 18.6156 C 4.02028 18.7375 3.99414 18.8682 3.99414 19.0002 C 3.99414 19.1322 4.02028 19.2629 4.07105 19.3848 C 4.12182 19.5066 4.19621 19.6172 4.28994 19.7102 C 4.3829 19.8039 4.4935 19.8783 4.61536 19.9291 C 4.73722 19.9798 4.86793 20.006 4.99994 20.006 C 5.13195 20.006 5.26266 19.9798 5.38452 19.9291 C 5.50638 19.8783 5.61698 19.8039 5.70994 19.7102 L 11.9999 13.4102 L 18.2899 19.7102 C 18.3829 19.8039 18.4935 19.8783 18.6154 19.9291 C 18.7372 19.9798 18.8679 20.006 18.9999 20.006 C 19.132 20.006 19.2627 19.9798 19.3845 19.9291 C 19.5064 19.8783 19.617 19.8039 19.7099 19.7102 C 19.8037 19.6172 19.8781 19.5066 19.9288 19.3848 C 19.9796 19.2629 20.0057 19.1322 20.0057 19.0002 C 20.0057 18.8682 19.9796 18.7375 19.9288 18.6156 C 19.8781 18.4937 19.8037 18.3831 19.7099 18.2902 L 13.4099 12.0002 Z" stroke-linecap="round" />
</g>
</svg>